<svg viewBox="0 0 413 95" xmlns="http://www.w3.org/2000/svg" fill-rule="evenodd" clip-rule="evenodd" stroke-linejoin="round" stroke-miterlimit="2"><path d="M24.957 44.103H0C0 19.746 19.746 0 44.103 0v24.957c0 10.574-8.572 19.146-19.146 19.146M44.103 94.556H0V50.454h25.789c10.115 0 18.314 8.198 18.314 18.313v25.789z" fill="#3bc2ce" fill-rule="nonzero"/><path d="M94.693 44.103H69.736c-10.575 0-19.147-8.572-19.147-19.146V0h44.104v44.103z" fill="#12909a" fill-rule="nonzero"/><path d="M50.589 94.556V69.599c0-10.573 8.572-19.145 19.146-19.145h24.958c0 24.357-19.746 44.102-44.104 44.102" fill="#3bc2ce" fill-rule="nonzero"/><path d="M391.611 69.365c-3.945 0-6.653-1.779-6.653-5.26 0-2.244 1.548-4.642 6.035-5.493l11.604-2.089v2.631c0 5.724-4.719 10.211-10.986 10.211m-1.237 7.659c5.183 0 9.593-1.857 12.765-5.57v4.642h9.361V47.781c0-8.974-7.428-15.086-17.794-15.086-8.664 0-15.937 4.487-18.413 11.14l8.588 4.179c1.47-3.946 5.183-6.5 9.747-6.5 4.642 0 7.969 2.476 7.969 6.267v1.393L389.6 51.417c-9.903 1.625-14.931 6.808-14.931 13.074 0 7.118 6.189 12.533 15.705 12.533m-34.322-.928V52.345c0-6.575 4.177-10.366 10.366-10.366h5.338V33.16h-4.178c-5.492 0-9.825 1.779-12.146 6.653v-6.189h-9.283v42.472h9.903zm-39.61-6.731c-3.946 0-6.654-1.779-6.654-5.26 0-2.244 1.548-4.642 6.034-5.493l11.606-2.089v2.631c0 5.724-4.72 10.211-10.986 10.211m-1.238 7.659c5.183 0 9.592-1.857 12.765-5.57v4.642h9.36V47.781c0-8.974-7.426-15.086-17.794-15.086-8.664 0-15.936 4.487-18.412 11.14l8.588 4.179c1.469-3.946 5.183-6.5 9.747-6.5 4.643 0 7.97 2.476 7.97 6.267v1.393l-12.998 2.243c-9.903 1.625-14.931 6.808-14.931 13.074 0 7.118 6.188 12.533 15.705 12.533m-45.954-9.052c-7.195 0-12.457-5.415-12.457-12.997 0-7.581 5.262-13.073 12.457-13.073 7.117 0 12.3 5.414 12.3 13.073 0 7.66-5.183 12.997-12.3 12.997m-1.084 9.052c5.571 0 10.831-2.011 14.003-5.647v4.719h9.284V17.609h-9.903v20.58c-3.016-3.405-7.89-5.417-13.384-5.417-12.301 0-21.661 9.748-21.661 22.203 0 12.456 9.36 22.049 21.661 22.049m-37.134-26.845h-21.043c1.16-5.956 5.416-9.36 10.831-9.36 5.338 0 9.825 3.868 10.212 9.36m-9.516 26.845c8.82 0 15.782-4.332 18.413-10.444l-8.045-3.945c-1.936 3.403-5.416 5.725-10.29 5.725-6.421 0-11.218-4.177-11.837-10.677h31.332c.387-1.16.542-2.785.542-4.255 0-11.371-8.742-20.733-20.811-20.733-12.068 0-21.352 9.439-21.352 22.126 0 12.378 8.974 22.203 22.048 22.203m-30.094-59.492h-9.903v58.564h9.903V17.532zm-43.323 59.492c12.377 0 21.584-6.962 24.601-15.085l-9.206-4.488c-2.321 6.035-7.814 10.213-15.395 10.213-11.063 0-18.722-8.279-18.722-20.425 0-12.069 7.659-20.346 18.722-20.346 7.581 0 13.074 4.255 15.395 10.212l9.206-4.487c-2.94-8.046-12.146-15.086-24.601-15.086-16.711 0-29.089 12.533-29.089 29.707 0 17.175 12.455 29.785 29.089 29.785" fill="#292d3d" fill-rule="nonzero"/></svg>
